<?xml version="1.0" encoding="utf-8"?>
<!-- Generator: Adobe Illustrator 19.0.0, SVG Export Plug-In . SVG Version: 6.00 Build 0)  -->
<svg version="1.1" id="Layer_1" xmlns="http://www.w3.org/2000/svg" xmlns:xlink="http://www.w3.org/1999/xlink" x="0px" y="0px"
	 viewBox="0 0 88.8 22.3" style="enable-background:new 0 0 88.8 22.3;" xml:space="preserve">
<path id="XMLID_55_" style="fill:#272727;" d="M25.1,16.9h-5.3c-0.2,0-0.5-0.1-0.6-0.3c-0.2-0.2-0.3-0.4-0.3-0.6
	c0-0.2,0.1-0.4,0.3-0.6c0.2-0.2,0.4-0.3,0.6-0.3h1.8V4.7h-1.8c-0.2,0-0.5-0.1-0.6-0.3c-0.2-0.2-0.3-0.4-0.3-0.6
	c0-0.2,0.1-0.5,0.3-0.6c0.2-0.2,0.4-0.3,0.6-0.3h2.7c0.2,0,0.4,0.1,0.6,0.3c0.2,0.2,0.3,0.4,0.3,0.6v11.3h1.8c0.2,0,0.4,0.1,0.6,0.3
	c0.2,0.2,0.3,0.4,0.3,0.6c0,0.2-0.1,0.5-0.3,0.6C25.5,16.8,25.3,16.9,25.1,16.9z"/>
<path id="XMLID_22_" style="fill:#272727;" d="M17,5.8c-0.4-0.4-0.8-0.5-1.2-0.5h-3.4c-0.2,0-0.5-0.1-0.6-0.3
	c-0.2-0.2-0.3-0.4-0.3-0.6V3.8c0-0.2-0.1-0.5-0.3-0.6C11,3,10.8,2.9,10.5,2.9c-0.2,0-0.5,0.1-0.6,0.3C9.8,3.3,9.7,3.5,9.7,3.8v0.5
	c0,0.2-0.1,0.5-0.3,0.6C9.2,5.1,9,5.2,8.7,5.2H5.4c-0.5,0-0.9,0.2-1.2,0.5C3.8,6.1,3.6,6.5,3.6,7v2.4v0.3v5.4c0,0.5,0.2,0.9,0.5,1.2
	c0.4,0.3,0.8,0.5,1.2,0.5h3.4c0.3,0,0.5,0.1,0.7,0.3c0.2,0.2,0.3,0.4,0.3,0.6v1.8c0,0.2,0.1,0.5,0.3,0.6c0.2,0.2,0.4,0.3,0.6,0.3
	c0.3,0,0.5-0.1,0.6-0.3c0.2-0.2,0.3-0.4,0.3-0.6v-1.8c0-0.2,0.1-0.4,0.3-0.6c0.2-0.2,0.4-0.3,0.7-0.3h3.4c0.5,0,0.9-0.2,1.2-0.5
	s0.5-0.8,0.5-1.2V9.7V8.9V7C17.5,6.5,17.3,6.1,17,5.8z M5.4,7h2.8c0.7,0,1.9-0.4,2.4-0.9C11,6.6,12.1,7,12.8,7h1.8l-9.2,7V9.7V9.4V7
	z M15.7,15.1h-3.4c-0.7,0-1.3,0.2-1.8,0.7c-0.4-0.5-1-0.7-1.8-0.7H6.8l8.9-6.8v0.6v0.7V15.1z"/>
<path id="XMLID_51_" style="fill:#272727;" d="M35.8,10.1v2.1c0,0.2-0.1,0.4-0.3,0.6c-0.2,0.2-0.4,0.3-0.6,0.3h-6.2v0.5
	c0,0.3,0.1,0.6,0.4,0.8l0.5,0.4c0.3,0.2,0.5,0.3,0.8,0.3h4.5c0.2,0,0.4,0.1,0.6,0.3c0.2,0.2,0.3,0.4,0.3,0.6c0,0.2-0.1,0.4-0.3,0.6
	c-0.2,0.2-0.4,0.3-0.6,0.3h-4.6c-0.3,0-0.6-0.1-1-0.2c-0.3-0.1-0.6-0.3-0.7-0.4l-0.8-0.7c-0.2-0.2-0.4-0.5-0.6-0.8
	c-0.2-0.3-0.2-0.7-0.2-1v-4c0-0.2,0.1-0.5,0.3-0.9c0.2-0.4,0.4-0.7,0.7-0.9l0.7-0.6c0.5-0.4,1-0.6,1.6-0.6h2.5
	c0.6,0,1.2,0.3,1.8,0.8L35,8.2C35.5,8.6,35.8,9.2,35.8,10.1z M28.7,9.9v1.4H34v-1.2c0-0.3-0.1-0.6-0.3-0.8l-0.5-0.5
	c-0.3-0.2-0.5-0.3-0.7-0.3h-2.2c-0.3,0-0.5,0.1-0.7,0.3L29,9.2C28.8,9.4,28.7,9.6,28.7,9.9z"/>
<path id="XMLID_48_" style="fill:#272727;" d="M43.6,20.4h-3.8c-0.2,0-0.5-0.1-0.6-0.3c-0.2-0.2-0.3-0.4-0.3-0.6
	c0-0.2,0.1-0.5,0.3-0.6c0.2-0.2,0.4-0.3,0.6-0.3h3.8c0.2,0,0.4-0.1,0.6-0.3l0.5-0.4c0.2-0.2,0.2-0.3,0.2-0.5v-2.7
	c-0.8,0.8-1.6,1.2-2.4,1.2h-1.4c-0.7,0-1.3-0.2-1.9-0.7l-0.7-0.6c-0.2-0.2-0.4-0.4-0.6-0.8c-0.2-0.3-0.2-0.7-0.2-1V10
	c0-0.4,0.1-0.8,0.2-1.2c0.2-0.4,0.3-0.6,0.6-0.8l0.7-0.6c0.5-0.4,1.1-0.7,1.8-0.7h1.3c0.7,0,1.3,0.2,1.9,0.7L45,8l0-0.3
	c0-0.2,0.1-0.4,0.3-0.6c0.2-0.2,0.4-0.3,0.6-0.3c0.2,0,0.5,0.1,0.6,0.3c0.2,0.2,0.3,0.4,0.3,0.6v9.9c0,0.7-0.1,1.2-0.7,1.7l-0.7,0.6
	c-0.2,0.2-0.4,0.3-0.8,0.4C44.2,20.4,43.9,20.4,43.6,20.4z M42.4,8.5h-1.2c-0.3,0-0.5,0.1-0.7,0.3L40,9.2c-0.2,0.2-0.3,0.4-0.3,0.7
	v2.9c0,0.2,0.1,0.5,0.3,0.7l0.6,0.5c0.2,0.2,0.4,0.2,0.6,0.2h1.4c0.2,0,0.4-0.1,0.7-0.3l1.4-1.2c0.2-0.2,0.3-0.4,0.3-0.7v-1.3
	c0-0.3-0.1-0.6-0.4-0.8l-1.4-1.2C43,8.6,42.7,8.5,42.4,8.5z"/>
<path id="XMLID_45_" style="fill:#272727;" d="M51.1,10.5h3.5c0.2,0,0.5,0,0.8,0.1l0-1.2c0-0.2-0.1-0.5-0.3-0.6
	c-0.2-0.2-0.4-0.3-0.6-0.3h-3.4c-0.2,0-0.4-0.1-0.6-0.3s-0.3-0.4-0.3-0.6c0-0.2,0.1-0.5,0.3-0.6c0.2-0.2,0.4-0.3,0.6-0.3h3.3
	c0.7,0,1.3,0.3,1.9,0.8c0.5,0.5,0.8,1.1,0.8,1.9l0.2,6.6c0,0.2-0.1,0.5-0.3,0.6c-0.2,0.2-0.4,0.3-0.6,0.3c-0.3,0-0.5-0.1-0.6-0.3
	c-0.2-0.2-0.3-0.4-0.3-0.6l-1.5,0.9h-3c-0.7,0-1.4-0.3-1.9-0.8c-0.5-0.5-0.8-1.1-0.8-1.9v-1c0-0.7,0.3-1.4,0.8-1.9
	C49.8,10.8,50.4,10.5,51.1,10.5z M55.5,13.9l-0.1-0.7c0-0.3-0.1-0.5-0.3-0.6c-0.2-0.2-0.4-0.3-0.6-0.3h-3.5c-0.2,0-0.5,0.1-0.6,0.3
	c-0.2,0.2-0.3,0.4-0.3,0.6v1c0,0.2,0.1,0.4,0.3,0.6c0.2,0.2,0.4,0.3,0.6,0.3h2.5L55.5,13.9z"/>
<path id="XMLID_43_" style="fill:#272727;" d="M59.3,16V7.6c0-0.2,0.1-0.5,0.3-0.6c0.2-0.2,0.4-0.3,0.6-0.3c0.2,0,0.5,0.1,0.6,0.3
	S61,7.4,61,7.6v1.1l1.4-1.2c0.6-0.5,1.2-0.8,1.7-0.8h1.3c0.7,0,1.3,0.3,1.9,0.8c0.5,0.5,0.8,1.1,0.8,1.9v0.5c0,0.3-0.1,0.5-0.3,0.6
	c-0.2,0.2-0.4,0.3-0.6,0.3c-0.2,0-0.5-0.1-0.6-0.3c-0.2-0.2-0.3-0.4-0.3-0.6V9.4c0-0.2-0.1-0.5-0.3-0.6c-0.2-0.2-0.4-0.3-0.6-0.3
	h-1.1c-0.2,0-0.5,0.1-0.8,0.4L61,11.1V16c0,0.2-0.1,0.5-0.3,0.6c-0.2,0.2-0.4,0.3-0.6,0.3c-0.2,0-0.5-0.1-0.6-0.3
	C59.4,16.4,59.3,16.2,59.3,16z"/>
<path id="XMLID_42_" style="fill:#272727;" d="M76.8,16.8h-5.4c-0.2,0-0.5-0.1-0.6-0.3c-0.2-0.2-0.3-0.4-0.3-0.6
	c0-0.2,0.1-0.4,0.3-0.6c0.2-0.2,0.4-0.3,0.6-0.3h1.8V8.5h-1.8c-0.2,0-0.5-0.1-0.6-0.3c-0.2-0.2-0.3-0.4-0.3-0.6
	c0-0.2,0.1-0.5,0.3-0.6c0.2-0.2,0.4-0.3,0.6-0.3h2.7c0.2,0,0.5,0.1,0.6,0.3C75,7.2,75,7.4,75,7.6v7.5h1.8c0.2,0,0.5,0.1,0.6,0.3
	c0.2,0.2,0.3,0.4,0.3,0.6c0,0.2-0.1,0.5-0.3,0.6C77.3,16.8,77.1,16.8,76.8,16.8z"/>
<path id="XMLID_41_" style="fill:#272727;" d="M73.2,2.9h0.9c0.2,0,0.5,0.1,0.6,0.3C75,3.4,75,3.6,75,3.8v0.8C75,4.8,75,5,74.8,5.2
	c-0.2,0.2-0.4,0.3-0.6,0.3h-0.9c-0.3,0-0.5-0.1-0.6-0.3c-0.2-0.2-0.3-0.4-0.2-0.6l0-0.8c0-0.2,0.1-0.5,0.3-0.6
	C72.8,3,73,2.9,73.2,2.9z"/>
<path id="XMLID_40_" style="fill:#272727;" d="M67,14.7h0.6c0.2,0,0.3,0.1,0.4,0.2c0.1,0.1,0.2,0.3,0.2,0.4v0.8
	c0,0.2-0.1,0.3-0.2,0.4c-0.1,0.1-0.2,0.2-0.4,0.2H67c-0.2,0-0.3-0.1-0.4-0.2c-0.1-0.1-0.2-0.3-0.2-0.4l0-0.9c0-0.2,0.1-0.3,0.2-0.4
	C66.7,14.8,66.8,14.7,67,14.7z"/>
<path id="XMLID_35_" style="fill:#272727;" d="M87.5,9.9v3.7c0,0.8-0.4,1.5-1.1,2.2c-0.7,0.7-1.5,1-2.3,1h-2.1c-0.8,0-1.6-0.3-2.3-1
	c-0.7-0.7-1.1-1.4-1.1-2.2V9.9c0-0.8,0.4-1.5,1.1-2.2c0.7-0.7,1.5-1,2.3-1h2.1c0.8,0,1.6,0.3,2.3,1C87.2,8.4,87.5,9.1,87.5,9.9z
	 M80.4,10v3.6c0,0.3,0.1,0.6,0.3,0.8l0.7,0.6c0.1,0.1,0.4,0.2,0.6,0.2h2c0.3,0,0.6-0.1,0.8-0.3l0.5-0.5c0.2-0.2,0.3-0.4,0.3-0.7V10
	c0-0.3-0.1-0.6-0.3-0.8l-0.6-0.5c-0.2-0.2-0.5-0.3-0.7-0.3h-1.8c-0.4,0-0.7,0.1-0.9,0.3l-0.6,0.5C80.5,9.5,80.4,9.7,80.4,10z"/>
</svg>
