<?xml version="1.0" encoding="utf-8"?>
<!-- Generator: Adobe Illustrator 19.0.0, SVG Export Plug-In . SVG Version: 6.00 Build 0)  -->
<svg version="1.1" id="Layer_1" xmlns="http://www.w3.org/2000/svg" xmlns:xlink="http://www.w3.org/1999/xlink" x="0px" y="0px"
	 viewBox="-376.5 356.7 204.3 51.3" style="enable-background:new -376.5 356.7 204.3 51.3;" xml:space="preserve">
<linearGradient id="XMLID_2_" gradientUnits="userSpaceOnUse" x1="-326.5095" y1="365.7" x2="-326.5095" y2="423.7086">
	<stop  offset="0" style="stop-color:#A9A7A8"/>
	<stop  offset="0.5108" style="stop-color:#FFFFFF"/>
	<stop  offset="1" style="stop-color:#827F80"/>
</linearGradient>
<path id="XMLID_55_" style="fill:url(#XMLID_2_);" d="M-320.4,397.9h-12.5c-0.5,0-1.2-0.2-1.4-0.7c-0.5-0.5-0.7-0.9-0.7-1.4
	c0-0.5,0.2-0.9,0.7-1.4s0.9-0.7,1.4-0.7h4.2v-24.5h-4.2c-0.5,0-1.2-0.2-1.4-0.7c-0.5-0.5-0.7-0.9-0.7-1.4c0-0.5,0.2-1.2,0.7-1.4
	c0.5-0.5,0.9-0.7,1.4-0.7h6.4c0.5,0,0.9,0.2,1.4,0.7s0.7,0.9,0.7,1.4v26.6h4.2c0.5,0,0.9,0.2,1.4,0.7s0.7,0.9,0.7,1.4
	c0,0.5-0.2,1.2-0.7,1.4C-319.4,397.6-319.9,397.9-320.4,397.9z"/>
<linearGradient id="XMLID_3_" gradientUnits="userSpaceOnUse" x1="-354.522" y1="365.7" x2="-354.522" y2="423.7086">
	<stop  offset="0" style="stop-color:#A9A7A8"/>
	<stop  offset="0.5108" style="stop-color:#FFFFFF"/>
	<stop  offset="1" style="stop-color:#827F80"/>
</linearGradient>
<path id="XMLID_22_" style="fill:url(#XMLID_3_);" d="M-339.5,371.7c-0.9-0.9-1.9-1.2-2.8-1.2h-8c-0.5,0-1.2-0.2-1.4-0.7
	c-0.5-0.5-0.7-0.9-0.7-1.4V367c0-0.5-0.2-1.2-0.7-1.4c-0.5-0.5-0.9-0.7-1.6-0.7c-0.5,0-1.2,0.2-1.4,0.7c-0.2,0.2-0.5,0.7-0.5,1.4
	v1.2c0,0.5-0.2,1.2-0.7,1.4c-0.5,0.5-0.9,0.7-1.6,0.7h-7.8c-1.2,0-2.1,0.5-2.8,1.2c-0.9,0.9-1.4,1.9-1.4,3.1v5.6v0.7v12.7
	c0,1.2,0.5,2.1,1.2,2.8c0.9,0.7,1.9,1.2,2.8,1.2h8c0.7,0,1.2,0.2,1.6,0.7s0.7,0.9,0.7,1.4v4.2c0,0.5,0.2,1.2,0.7,1.4
	c0.5,0.5,0.9,0.7,1.4,0.7c0.7,0,1.2-0.2,1.4-0.7c0.5-0.5,0.7-0.9,0.7-1.4v-4.2c0-0.5,0.2-0.9,0.7-1.4c0.5-0.5,0.9-0.7,1.6-0.7h8
	c1.2,0,2.1-0.5,2.8-1.2c0.7-0.7,1.2-1.9,1.2-2.8v-12.7V379v-4.5C-338.3,373.4-338.8,372.4-339.5,371.7z M-366.8,374.6h6.6
	c1.6,0,4.5-0.9,5.6-2.1c0.9,1.2,3.5,2.1,5.2,2.1h4.2l-21.7,16.5v-10.1v-0.7C-366.8,380.2-366.8,374.6-366.8,374.6z M-342.5,393.6h-8
	c-1.6,0-3.1,0.5-4.2,1.6c-0.9-1.2-2.4-1.6-4.2-1.6h-4.5l21-16v1.4v1.6V393.6z"/>
<linearGradient id="XMLID_4_" gradientUnits="userSpaceOnUse" x1="-305.559" y1="365.7" x2="-305.559" y2="423.7086">
	<stop  offset="0" style="stop-color:#A9A7A8"/>
	<stop  offset="0.5108" style="stop-color:#FFFFFF"/>
	<stop  offset="1" style="stop-color:#827F80"/>
</linearGradient>
<path id="XMLID_51_" style="fill:url(#XMLID_4_);" d="M-295.2,381.9v4.9c0,0.5-0.2,0.9-0.7,1.4c-0.5,0.5-0.9,0.7-1.4,0.7h-14.6v1.2
	c0,0.7,0.2,1.4,0.9,1.9l1.2,0.9c0.7,0.5,1.2,0.7,1.9,0.7h10.6c0.5,0,0.9,0.2,1.4,0.7s0.7,0.9,0.7,1.4c0,0.5-0.2,0.9-0.7,1.4
	s-0.9,0.7-1.4,0.7h-10.8c-0.7,0-1.4-0.2-2.4-0.5c-0.7-0.2-1.4-0.7-1.6-0.9l-1.9-1.6c-0.5-0.5-0.9-1.2-1.4-1.9
	c-0.5-0.7-0.5-1.6-0.5-2.4v-9.4c0-0.5,0.2-1.2,0.7-2.1c0.5-0.9,0.9-1.6,1.6-2.1l1.6-1.4c1.2-0.9,2.4-1.4,3.8-1.4h5.9
	c1.4,0,2.8,0.7,4.2,1.9l0.9,1.4C-295.9,378.3-295.2,379.7-295.2,381.9z M-311.9,381.4v3.3h12.5v-2.8c0-0.7-0.2-1.4-0.7-1.9l-1.2-1.2
	c-0.7-0.5-1.2-0.7-1.6-0.7h-5.2c-0.7,0-1.2,0.2-1.6,0.7l-1.4,0.9C-311.7,380.2-311.9,380.7-311.9,381.4z"/>
<linearGradient id="XMLID_5_" gradientUnits="userSpaceOnUse" x1="-280.0182" y1="365.7" x2="-280.0182" y2="423.7086">
	<stop  offset="0" style="stop-color:#A9A7A8"/>
	<stop  offset="0.5108" style="stop-color:#FFFFFF"/>
	<stop  offset="1" style="stop-color:#827F80"/>
</linearGradient>
<path id="XMLID_48_" style="fill:url(#XMLID_5_);" d="M-276.8,406.1h-8.9c-0.5,0-1.2-0.2-1.4-0.7c-0.5-0.5-0.7-0.9-0.7-1.4
	s0.2-1.2,0.7-1.4c0.5-0.5,0.9-0.7,1.4-0.7h8.9c0.5,0,0.9-0.2,1.4-0.7l1.2-0.9c0.5-0.5,0.5-0.7,0.5-1.2v-6.4
	c-1.9,1.9-3.8,2.8-5.6,2.8h-3.3c-1.6,0-3.1-0.5-4.5-1.6l-1.6-1.4c-0.5-0.5-0.9-0.9-1.4-1.9c-0.5-0.7-0.5-1.6-0.5-2.4v-6.6
	c0-0.9,0.2-1.9,0.5-2.8c0.5-0.9,0.7-1.4,1.4-1.9l1.6-1.4c1.2-0.9,2.6-1.6,4.2-1.6h3.1c1.6,0,3.1,0.5,4.5,1.6l1.9,1.4v-0.7
	c0-0.5,0.2-0.9,0.7-1.4s0.9-0.7,1.4-0.7c0.5,0,1.2,0.2,1.4,0.7c0.5,0.5,0.7,0.9,0.7,1.4v23.3c0,1.6-0.2,2.8-1.6,4l-1.6,1.4
	c-0.5,0.5-0.9,0.7-1.9,0.9C-275.4,406.1-276.1,406.1-276.8,406.1z M-279.7,378.1h-2.8c-0.7,0-1.2,0.2-1.6,0.7l-1.2,0.9
	c-0.5,0.5-0.7,0.9-0.7,1.6v6.8c0,0.5,0.2,1.2,0.7,1.6l1.4,1.2c0.5,0.5,0.9,0.5,1.4,0.5h3.3c0.5,0,0.9-0.2,1.6-0.7l3.3-2.8
	c0.5-0.5,0.7-0.9,0.7-1.6v-3.1c0-0.7-0.2-1.4-0.9-1.9l-3.3-2.8C-278.3,378.3-279,378.1-279.7,378.1z"/>
<linearGradient id="XMLID_6_" gradientUnits="userSpaceOnUse" x1="-255.1835" y1="365.7" x2="-255.1835" y2="423.7086">
	<stop  offset="0" style="stop-color:#A9A7A8"/>
	<stop  offset="0.5108" style="stop-color:#FFFFFF"/>
	<stop  offset="1" style="stop-color:#827F80"/>
</linearGradient>
<path id="XMLID_45_" style="fill:url(#XMLID_6_);" d="M-259.2,382.8h8.2c0.5,0,1.2,0,1.9,0.2v-2.8c0-0.5-0.2-1.2-0.7-1.4
	c-0.5-0.5-0.9-0.7-1.4-0.7h-8c-0.5,0-0.9-0.2-1.4-0.7c-0.5-0.5-0.7-0.9-0.7-1.4s0.2-1.2,0.7-1.4c0.5-0.5,0.9-0.7,1.4-0.7h7.8
	c1.6,0,3.1,0.7,4.5,1.9c1.2,1.2,1.9,2.6,1.9,4.5l0.5,15.5c0,0.5-0.2,1.2-0.7,1.4c-0.5,0.5-0.9,0.7-1.4,0.7c-0.7,0-1.2-0.2-1.4-0.7
	c-0.5-0.5-0.7-0.9-0.7-1.4l-3.5,2.1h-7.1c-1.6,0-3.3-0.7-4.5-1.9s-1.9-2.6-1.9-4.5v-2.4c0-1.6,0.7-3.3,1.9-4.5
	C-262.2,383.5-260.8,382.8-259.2,382.8z M-248.8,390.8l-0.2-1.6c0-0.7-0.2-1.2-0.7-1.4c-0.5-0.5-0.9-0.7-1.4-0.7h-8.2
	c-0.5,0-1.2,0.2-1.4,0.7c-0.5,0.5-0.7,0.9-0.7,1.4v2.4c0,0.5,0.2,0.9,0.7,1.4c0.5,0.5,0.9,0.7,1.4,0.7h5.9L-248.8,390.8z"/>
<linearGradient id="XMLID_7_" gradientUnits="userSpaceOnUse" x1="-229.525" y1="365.7" x2="-229.525" y2="423.7086">
	<stop  offset="0" style="stop-color:#A9A7A8"/>
	<stop  offset="0.5108" style="stop-color:#FFFFFF"/>
	<stop  offset="1" style="stop-color:#827F80"/>
</linearGradient>
<path id="XMLID_43_" style="fill:url(#XMLID_7_);" d="M-239.9,395.7V376c0-0.5,0.2-1.2,0.7-1.4c0.5-0.5,0.9-0.7,1.4-0.7
	s1.2,0.2,1.4,0.7s0.5,0.9,0.5,1.4v2.6l3.3-2.8c1.4-1.2,2.8-1.9,4-1.9h3.1c1.6,0,3.1,0.7,4.5,1.9c1.2,1.2,1.9,2.6,1.9,4.5v1.2
	c0,0.7-0.2,1.2-0.7,1.4c-0.5,0.5-0.9,0.7-1.4,0.7s-1.2-0.2-1.4-0.7c-0.5-0.5-0.7-0.9-0.7-1.4v-1.2c0-0.5-0.2-1.2-0.7-1.4
	c-0.5-0.5-0.9-0.7-1.4-0.7h-2.6c-0.5,0-1.2,0.2-1.9,0.9l-5.9,5.2v11.5c0,0.5-0.2,1.2-0.7,1.4c-0.5,0.5-0.9,0.7-1.4,0.7
	s-1.2-0.2-1.4-0.7C-239.6,396.7-239.9,396.2-239.9,395.7z"/>
<linearGradient id="XMLID_8_" gradientUnits="userSpaceOnUse" x1="-205.0435" y1="365.7" x2="-205.0435" y2="423.7086">
	<stop  offset="0" style="stop-color:#A9A7A8"/>
	<stop  offset="0.5108" style="stop-color:#FFFFFF"/>
	<stop  offset="1" style="stop-color:#827F80"/>
</linearGradient>
<path id="XMLID_42_" style="fill:url(#XMLID_8_);" d="M-198.7,397.6h-12.7c-0.5,0-1.2-0.2-1.4-0.7c-0.5-0.5-0.7-0.9-0.7-1.4
	s0.2-0.9,0.7-1.4c0.5-0.5,0.9-0.7,1.4-0.7h4.2v-15.3h-4.2c-0.5,0-1.2-0.2-1.4-0.7c-0.5-0.5-0.7-0.9-0.7-1.4s0.2-1.2,0.7-1.4
	c0.5-0.5,0.9-0.7,1.4-0.7h6.4c0.5,0,1.2,0.2,1.4,0.7c0.7,0.5,0.7,0.9,0.7,1.4v17.7h4.2c0.5,0,1.2,0.2,1.4,0.7
	c0.5,0.5,0.7,0.9,0.7,1.4c0,0.5-0.2,1.2-0.7,1.4C-197.5,397.6-198,397.6-198.7,397.6z"/>
<linearGradient id="XMLID_9_" gradientUnits="userSpaceOnUse" x1="-205.9136" y1="365.7" x2="-205.9136" y2="423.7086">
	<stop  offset="0" style="stop-color:#A9A7A8"/>
	<stop  offset="0.5108" style="stop-color:#FFFFFF"/>
	<stop  offset="1" style="stop-color:#827F80"/>
</linearGradient>
<path id="XMLID_41_" style="fill:url(#XMLID_9_);" d="M-207.2,364.9h2.1c0.5,0,1.2,0.2,1.4,0.7c0.7,0.5,0.7,0.9,0.7,1.4v1.9
	c0,0.5,0,0.9-0.5,1.4c-0.5,0.5-0.9,0.7-1.4,0.7h-2.1c-0.7,0-1.2-0.2-1.4-0.7c-0.5-0.5-0.7-0.9-0.5-1.4V367c0-0.5,0.2-1.2,0.7-1.4
	C-208.1,365.1-207.6,364.9-207.2,364.9z"/>
<linearGradient id="XMLID_10_" gradientUnits="userSpaceOnUse" x1="-221.0507" y1="365.7" x2="-221.0507" y2="423.7086">
	<stop  offset="0" style="stop-color:#A9A7A8"/>
	<stop  offset="0.5108" style="stop-color:#FFFFFF"/>
	<stop  offset="1" style="stop-color:#827F80"/>
</linearGradient>
<path id="XMLID_40_" style="fill:url(#XMLID_10_);" d="M-221.8,392.7h1.4c0.5,0,0.7,0.2,0.9,0.5c0.2,0.2,0.5,0.7,0.5,0.9v1.9
	c0,0.5-0.2,0.7-0.5,0.9s-0.5,0.5-0.9,0.5h-1.4c-0.5,0-0.7-0.2-0.9-0.5s-0.5-0.7-0.5-0.9v-2.1c0-0.5,0.2-0.7,0.5-0.9
	C-222.5,392.9-222.2,392.7-221.8,392.7z"/>
<linearGradient id="XMLID_11_" gradientUnits="userSpaceOnUse" x1="-183.9753" y1="365.7" x2="-183.9753" y2="423.7086">
	<stop  offset="0" style="stop-color:#A9A7A8"/>
	<stop  offset="0.5108" style="stop-color:#FFFFFF"/>
	<stop  offset="1" style="stop-color:#827F80"/>
</linearGradient>
<path id="XMLID_35_" style="fill:url(#XMLID_11_);" d="M-173.5,381.4v8.7c0,1.9-0.9,3.5-2.6,5.2c-1.6,1.6-3.5,2.4-5.4,2.4h-4.9
	c-1.9,0-3.8-0.7-5.4-2.4s-2.6-3.3-2.6-5.2v-8.7c0-1.9,0.9-3.5,2.6-5.2c1.6-1.6,3.5-2.4,5.4-2.4h4.9c1.9,0,3.8,0.7,5.4,2.4
	C-174.2,377.9-173.5,379.5-173.5,381.4z M-190.2,381.6v8.5c0,0.7,0.2,1.4,0.7,1.9l1.6,1.4c0.2,0.2,0.9,0.5,1.4,0.5h4.7
	c0.7,0,1.4-0.2,1.9-0.7l1.2-1.2c0.5-0.5,0.7-0.9,0.7-1.6v-8.7c0-0.7-0.2-1.4-0.7-1.9l-1.4-1.2c-0.5-0.5-1.2-0.7-1.6-0.7h-4.2
	c-0.9,0-1.6,0.2-2.1,0.7l-1.4,1.2C-190,380.4-190.2,380.9-190.2,381.6z"/>
</svg>
